# xmcd CD database file
#
# Track frame offsets:
#	150
#	19861
#	50218
#	80343
#	109512
#	128491
#	142270
#	171141
#	200826
#	219451
#	246764
#
# Disc length: 3677 seconds
#
# Revision: 0
# Processed by: cddbd v1.5.2PL0 Copyright (c) Steve Scherf et al.
# Submitted via: NeoAudio 9.9.9
#
DISCID=9f0e5b0b
DTITLE=Fito Reinoso - Comunicación
DYEAR=2007
DGENRE=Salsa
TTITLE0=Tu Voz
TTITLE1=Orisan Paguan
TTITLE2=Comunicacion
TTITLE3=No Me Pidas Eso
TTITLE4=Se Levanta El Niño
TTITLE5=Pensamiento
TTITLE6=La Conoci
TTITLE7=Rumba Sin Permiso
TTITLE8=Meneito
TTITLE9=Atormetada
TTITLE10=Pueblo Mio
EXTD=YEAR: 2007
EXTT0=
EXTT1=
EXTT2=
EXTT3=
EXTT4=
EXTT5=
EXTT6=
EXTT7=
EXTT8=
EXTT9=
EXTT10=
PLAYORDER=
